<svg width="98" height="98" viewBox="0 0 98 98" fill="none" xmlns="http://www.w3.org/2000/svg">
<path d="M15.0273 38.3307C15.0273 25.9245 25.0846 15.8672 37.4909 15.8672H60.5456C72.9518 15.8672 83.0091 25.9245 83.0091 38.3307V60.7943C83.0091 74.18 72.1579 85.0312 58.7721 85.0312H39.2643C25.8786 85.0312 15.0273 74.18 15.0273 60.7943V38.3307Z" fill="#F56650"/>
<path d="M48.4271 16.1628L48.4271 7L45.7669 13.5026L35.7174 12.6159L44.289 16.1628H48.4271Z" fill="#3D6048"/>
<path d="M48.4271 15.867L48.4271 25.0298L45.7669 18.5272L35.7174 19.4139L44.289 15.867H48.4271Z" fill="#3D6048"/>
<path d="M48.4271 15.867L48.4271 25.0298L51.0872 18.5272L61.1367 19.4139L52.5651 15.867H48.4271Z" fill="#3D6048"/>
<path d="M48.4271 16.1628L48.4271 7L51.0872 13.5026L61.1367 12.6159L52.5651 16.1628H48.4271Z" fill="#3D6048"/>
</svg>
