<svg width="253" height="88" viewBox="0 0 253 88" fill="none" xmlns="http://www.w3.org/2000/svg">
<path d="M171.123 12.1085C171.123 8.09452 174.377 4.84058 178.391 4.84058H214.73C230.786 4.84058 243.802 17.8563 243.802 33.9121V48.4479C243.802 64.5036 230.786 77.5194 214.73 77.5194H178.391C174.377 77.5194 171.123 74.2654 171.123 70.2515V12.1085Z" fill="url(#paint0_linear_111_414)"/>
<path d="M34.7704 72.5615C39.9972 81.4795 53.0643 81.4795 58.2911 72.5615L86.2219 24.9061C91.4487 15.9882 84.9152 4.84075 74.4615 4.84075H18.5999C8.14628 4.84075 1.61278 15.9882 6.83959 24.9062L34.7704 72.5615Z" fill="url(#paint1_linear_111_414)"/>
<mask id="mask0_111_414" style="mask-type:alpha" maskUnits="userSpaceOnUse" x="73" y="4" width="92" height="76">
<path d="M134.78 21.2106C134.78 12.1697 141.366 4.84058 149.489 4.84058C157.613 4.84058 164.198 12.1697 164.198 21.2106V62.8798C164.198 71.9207 157.613 79.2498 149.489 79.2498C141.366 79.2498 134.78 71.9207 134.78 62.8798V21.2106Z" fill="#FB5331"/>
<path d="M112.756 18.884C114.328 9.90657 122.089 3.76452 130.091 5.16538C138.092 6.56623 143.305 14.9795 141.733 23.957L134.49 65.3336C132.918 74.3111 125.157 80.4531 117.155 79.0522C109.154 77.6514 103.941 69.2381 105.513 60.2607L112.756 18.884Z" fill="#FC877A"/>
<path d="M98.3086 15.2643C103.135 6.83406 112.763 3.27208 119.813 7.30839C126.863 11.3447 128.665 21.4508 123.838 29.8811L101.592 68.7357C96.765 77.1659 87.1373 80.7279 80.0875 76.6916C73.0378 72.6553 71.2357 62.5492 76.0624 54.1189L98.3086 15.2643Z" fill="#FCB1AA"/>
</mask>
<g mask="url(#mask0_111_414)">
<path d="M72.4875 -6.92163H174.584V88.253H72.4875V-6.92163Z" fill="url(#paint2_linear_111_414)"/>
</g>
<defs>
<linearGradient id="paint0_linear_111_414" x1="265" y1="41.18" x2="171.123" y2="41.18" gradientUnits="userSpaceOnUse">
<stop stop-color="#D04030"/>
<stop offset="1" stop-color="#F56650"/>
</linearGradient>
<linearGradient id="paint1_linear_111_414" x1="79.8576" y1="42.0454" x2="-10.4474" y2="42.0454" gradientUnits="userSpaceOnUse">
<stop stop-color="#F56650"/>
<stop offset="1" stop-color="#FF9A85"/>
</linearGradient>
<linearGradient id="paint2_linear_111_414" x1="164.5" y1="40.6657" x2="53.5" y2="40.6657" gradientUnits="userSpaceOnUse">
<stop stop-color="#F56650"/>
<stop offset="1" stop-color="#F56650"/>
</linearGradient>
</defs>
</svg>
