<svg width="24" height="24" viewBox="0 0 24 24" fill="none" xmlns="http://www.w3.org/2000/svg">
<g clip-path="url(#clip0_111_725)">
<path d="M-1.01978 14.254C-1.01978 9.31684 2.98261 5.31445 7.9198 5.31445H17.0946C22.0318 5.31445 26.0342 9.31684 26.0342 14.254V23.1936C26.0342 28.5206 21.7158 32.8389 16.3889 32.8389H8.62555C3.29859 32.8389 -1.01978 28.5206 -1.01978 23.1936V14.254Z" fill="#F56650"/>
<path d="M12.272 5.43205L12.272 1.78564L11.2133 4.37342L7.21406 4.02054L10.6252 5.43205H12.272Z" fill="#3D6048"/>
<path d="M12.272 5.31453L12.272 8.96094L11.2133 6.37317L7.21406 6.72604L10.6252 5.31453H12.272Z" fill="#3D6048"/>
<path d="M12.272 5.31453L12.272 8.96094L13.3306 6.37317L17.3299 6.72604L13.9187 5.31453H12.272Z" fill="#3D6048"/>
<path d="M12.272 5.43205L12.272 1.78564L13.3306 4.37342L17.3299 4.02054L13.9187 5.43205H12.272Z" fill="#3D6048"/>
</g>
<rect x="1" y="1" width="22" height="22" rx="11" stroke="#EEF1F5" stroke-width="2"/>
<defs>
<clipPath id="clip0_111_725">
<rect width="24" height="24" rx="12" fill="white"/>
</clipPath>
</defs>
</svg>
