<svg width="16" height="16" viewBox="0 0 16 16" fill="none" xmlns="http://www.w3.org/2000/svg">
<path d="M8.55467 14.534C10.6387 14.1167 13.3333 12.6174 13.3333 8.7407C13.3333 5.21337 10.7513 2.86404 8.89467 1.7847C8.482 1.5447 8 1.86004 8 2.3367V3.55537C8 4.5167 7.596 6.27137 6.47333 7.00137C5.9 7.37404 5.28 6.81604 5.21067 6.13604L5.15333 5.57737C5.08667 4.92804 4.42533 4.53404 3.90667 4.93004C2.974 5.64004 2 6.8867 2 8.74004C2 13.4807 5.526 14.6667 7.28867 14.6667C7.39178 14.6667 7.49933 14.6634 7.61133 14.6567C7.90867 14.6194 7.61133 14.7227 8.55467 14.5334" fill="#D04030"/>
<path d="M5.33325 12.296C5.33325 14.0426 6.74059 14.5826 7.61125 14.6573C7.90859 14.62 7.61125 14.7233 8.55458 14.534C9.24725 14.2893 9.99992 13.6613 9.99992 12.296C9.99992 11.4313 9.45392 10.8973 9.02659 10.6473C8.89592 10.5706 8.74392 10.6673 8.73258 10.818C8.69525 11.2966 8.23525 11.678 7.92259 11.314C7.64592 10.9926 7.52925 10.5226 7.52925 10.222V9.82862C7.52925 9.59262 7.29125 9.43529 7.08725 9.55662C6.32992 10.0053 5.33325 10.9293 5.33325 12.296Z" fill="#E5D4B5"/>
</svg>
