<svg width="24" height="24" viewBox="0 0 24 24" fill="none" xmlns="http://www.w3.org/2000/svg">
<g clip-path="url(#clip0_121_1500)">
<path d="M11.0999 12.0801C9.09991 8.2001 10.1799 4.7201 11.1699 2.8101C11.3599 2.4501 11.0499 2.0401 10.6399 2.0901C5.61991 2.7701 1.77991 7.1601 1.98991 12.4101C1.99991 12.4101 1.99991 12.4101 1.99991 12.4201C2.61991 12.1501 3.28991 12.0001 3.99991 12.0001C5.65991 12.0001 7.17991 12.8301 8.09991 14.1501C9.76991 14.6301 10.9999 16.1701 10.9999 18.0001C10.9999 19.5201 10.1299 20.8301 8.87991 21.5101C9.85991 21.8301 10.9099 22.0101 11.9899 22.0101C15.1199 22.0101 17.9099 20.5701 19.7499 18.3201C20.0099 18.0001 19.7899 17.5301 19.3799 17.5001C16.8899 17.3701 13.0999 15.9701 11.0999 12.0801Z" fill="#0D1117"/>
<path d="M7 16H6.82C6.4 14.84 5.3 14 4 14C2.34 14 1 15.34 1 17C1 18.66 2.34 20 4 20C4.62 20 6.49 20 7 20C8.1 20 9 19.1 9 18C9 16.9 8.1 16 7 16Z" fill="#0D1117"/>
</g>
<defs>
<clipPath id="clip0_121_1500">
<rect width="24" height="24" fill="white"/>
</clipPath>
</defs>
</svg>
