<svg width="16" height="16" viewBox="0 0 16 16" fill="none" xmlns="http://www.w3.org/2000/svg">
<path d="M13.5683 9.99244C12.9183 12.6874 9.90392 14.2721 6.83555 13.532C3.76719 12.7919 1.80671 10.0073 2.45674 7.31232C3.10676 4.61739 6.1211 3.03266 9.18946 3.77275C12.2578 4.51285 14.2183 7.29748 13.5683 9.99244Z" fill="#F56650"/>
<path d="M10.3905 4.93525C10.3632 4.94125 10.3346 4.93773 10.3096 4.92528L10.2925 4.9168C10.2925 4.9168 10.2804 4.91078 10.2591 4.89853C10.2383 4.88596 10.2061 4.86864 10.1684 4.84437C10.1589 4.83834 10.1486 4.83218 10.1385 4.82532L10.1227 4.81505L10.1065 4.80675C10.0842 4.79575 10.0619 4.78318 10.0378 4.77068C10.0129 4.75843 9.99141 4.74373 9.96291 4.731C9.93521 4.71793 9.90777 4.70346 9.87898 4.68932C9.86425 4.68271 9.85116 4.67373 9.83577 4.6678L9.79012 4.64878C9.77462 4.64259 9.75982 4.63557 9.74468 4.6288L9.722 4.61853C9.71441 4.61514 9.70602 4.61298 9.69807 4.61016C9.66568 4.59968 9.6348 4.58725 9.60318 4.57578C9.57044 4.56665 9.5378 4.55719 9.50525 4.54739L9.48109 4.54012C9.47264 4.5383 9.46396 4.53682 9.45564 4.53478L9.40546 4.5233C9.38862 4.51968 9.37275 4.51491 9.35543 4.51209L9.30346 4.50323L9.25218 4.49389L9.23943 4.49153L9.2258 4.49025L9.19893 4.48675L9.14564 4.4795C9.12784 4.47718 9.111 4.4738 9.09171 4.47339C9.07318 4.4715 9.05471 4.46989 9.03643 4.46764C9.01832 4.46468 9.00012 4.46259 8.98234 4.45875C8.9458 4.45262 8.90737 4.44791 8.87102 4.43807C8.85248 4.43425 8.83473 4.4275 8.81612 4.42296C8.79716 4.41771 8.77812 4.41353 8.75937 4.40728C8.72162 4.39637 8.68475 4.38157 8.64746 4.36773C8.60925 4.35421 8.57134 4.34128 8.53396 4.32734C8.49657 4.31337 8.45996 4.29893 8.42252 4.288C8.37243 4.27241 8.32245 4.25641 8.27262 4.24C8.26037 4.25445 8.24785 4.26866 8.23507 4.28264C8.21307 4.30493 8.19807 4.32864 8.17923 4.34968C8.16139 4.37103 8.14527 4.39121 8.1288 4.40957C8.11576 4.4269 8.10234 4.44394 8.08855 4.46068C8.07855 4.47324 8.06829 4.4856 8.0578 4.49775C8.04692 4.52541 8.03557 4.55287 8.02375 4.58014C8.00316 4.62728 7.98152 4.67395 7.95884 4.72012C7.95298 4.73257 7.94643 4.74482 7.94012 4.7573C7.93384 4.77019 7.92734 4.78298 7.92064 4.79566C7.8785 4.87672 7.83366 4.95635 7.78618 5.03441C7.72063 5.14338 7.65064 5.24962 7.57639 5.35287C7.53962 5.40353 7.50275 5.45248 7.46543 5.49843C7.43045 5.54247 7.39433 5.58559 7.35712 5.62775C7.28698 5.70737 7.22205 5.77257 7.17357 5.81744C7.14984 5.84005 7.12848 5.85698 7.1153 5.86887C7.10866 5.87487 7.10277 5.87898 7.09914 5.882L7.09359 5.88614L7.07571 5.89946C6.97059 5.97778 6.82189 5.95605 6.74359 5.85093C6.7269 5.82841 6.71428 5.80314 6.70627 5.77628L6.69782 5.74762C6.69337 5.72959 6.6848 5.70264 6.67777 5.66948C6.6688 5.63007 6.6612 5.59035 6.65498 5.55041C6.64698 5.5 6.64078 5.44931 6.63641 5.39846C6.63164 5.34323 6.62818 5.28368 6.62755 5.22137C6.62605 5.15878 6.62773 5.09353 6.63173 5.02634C6.63577 4.95921 6.64273 4.8903 6.65221 4.82066C6.66171 4.75098 6.67425 4.68066 6.68962 4.61071C6.70498 4.54066 6.72277 4.47098 6.74437 4.40284C6.75244 4.37715 6.76093 4.35166 6.76984 4.32639C6.74455 4.33075 6.71915 4.3351 6.69362 4.33943C6.61077 4.35516 6.5268 4.37314 6.44207 4.39216C6.35723 4.41166 6.27207 4.43375 6.18668 4.4558C6.10184 4.47975 6.01664 4.50305 5.93273 4.52764C5.8495 4.55339 5.76593 4.57714 5.68641 4.60353C5.6058 4.6283 5.52902 4.65482 5.45459 4.67859L5.24759 4.74916C5.21767 4.76037 5.18748 4.77088 5.15707 4.78068C5.12818 4.79007 5.10468 4.79903 5.07987 4.80643C5.05602 4.81425 5.03412 4.82064 5.01312 4.82964C4.99291 4.83793 4.97502 4.84439 4.96043 4.84959C4.93139 4.86007 4.91482 4.86478 4.91482 4.86478C4.89154 4.8714 4.867 4.87232 4.84329 4.86745C4.81958 4.86259 4.79739 4.85208 4.77859 4.83682C4.7598 4.82156 4.74497 4.802 4.73534 4.77979C4.72571 4.75758 4.72157 4.73338 4.72327 4.70923C4.72327 4.70923 4.7245 4.69205 4.72877 4.66148C4.73087 4.64616 4.73355 4.62732 4.7375 4.60584C4.73975 4.59489 4.74052 4.58375 4.74466 4.5705L4.75691 4.52939C4.76534 4.50032 4.77687 4.46725 4.78941 4.43393C4.80293 4.39803 4.81758 4.36257 4.83334 4.32759C4.85218 4.28845 4.87211 4.24984 4.89312 4.21182C4.91739 4.17027 4.94294 4.12948 4.96973 4.0895C5.02734 4.00753 5.09557 3.9215 5.17723 3.84003C5.2578 3.75689 5.35212 3.67914 5.45562 3.60568C5.56343 3.53115 5.6778 3.46659 5.79732 3.4128C5.92066 3.35893 6.05132 3.31428 6.18627 3.28243C6.3218 3.25248 6.46082 3.23398 6.59932 3.23012C6.69627 3.2283 6.7925 3.23316 6.88643 3.2448C6.8696 3.21356 6.85075 3.18345 6.83 3.15466C6.81759 3.13646 6.80218 3.11762 6.78762 3.09748C6.77068 3.07843 6.75475 3.0588 6.73632 3.03809C6.70087 2.99759 6.66021 2.95612 6.62037 2.91466L6.49916 2.79275C6.46191 2.7553 6.42497 2.71753 6.38834 2.67946C6.35484 2.64384 6.32573 2.61237 6.30139 2.58375C6.27484 2.55634 6.25498 2.53093 6.24102 2.5153C6.23405 2.50748 6.22898 2.50032 6.22546 2.49593L6.22016 2.48912L6.20887 2.47455C6.19528 2.45703 6.18622 2.43644 6.18248 2.41459C6.17875 2.39274 6.18045 2.3703 6.18744 2.34926C6.19442 2.32823 6.20648 2.30924 6.22255 2.29396C6.23862 2.27869 6.2582 2.26762 6.27957 2.26171C6.27957 2.26171 6.28996 2.25884 6.30916 2.25443C6.32825 2.25046 6.35668 2.24303 6.39202 2.23678C6.42882 2.23132 6.47502 2.22339 6.52655 2.21921L6.60923 2.2118C6.63859 2.20978 6.66907 2.20989 6.70148 2.20896C6.7338 2.20832 6.76789 2.20925 6.80343 2.20959C6.839 2.21028 6.87571 2.21432 6.91405 2.217C6.99066 2.22578 7.07282 2.23748 7.15984 2.26091C7.24666 2.28316 7.33893 2.31439 7.43259 2.36139C7.52668 2.40705 7.6218 2.4683 7.7123 2.54453C7.73474 2.56392 7.75709 2.58374 7.77934 2.60398C7.8008 2.62515 7.82211 2.64672 7.84327 2.66871C7.86381 2.69115 7.88414 2.714 7.90427 2.73725C7.92452 2.76046 7.94239 2.78487 7.96123 2.80916C8.00468 2.86821 8.04371 2.92946 8.07666 2.9913C8.10639 2.9618 8.13716 2.93305 8.17007 2.90684C8.22446 2.85957 8.28393 2.81996 8.34409 2.78041C8.37481 2.76222 8.40579 2.74448 8.43702 2.72718C8.46812 2.70914 8.50052 2.69582 8.5325 2.68037C8.66123 2.62241 8.79455 2.58009 8.92589 2.55728C9.05716 2.53357 9.18662 2.52425 9.30928 2.53059C9.43205 2.53598 9.54846 2.55321 9.65537 2.58118C9.76243 2.60764 9.86002 2.64507 9.94657 2.68555C10.033 2.72746 10.1085 2.77198 10.1717 2.81907C10.2032 2.84262 10.2324 2.86355 10.2578 2.88734C10.2835 2.91014 10.3061 2.92973 10.3277 2.95216C10.3465 2.97055 10.3645 2.98966 10.3818 3.00943C10.394 3.02589 10.404 3.04073 10.4122 3.05284C10.4204 3.06464 10.4263 3.07475 10.4304 3.08116L10.4366 3.09105C10.4492 3.11134 10.4568 3.13439 10.4586 3.15825C10.4605 3.1821 10.4565 3.20604 10.4471 3.22802C10.4376 3.25001 10.423 3.26938 10.4045 3.28448C10.3859 3.29958 10.364 3.30997 10.3405 3.31475L10.3291 3.31709C10.3216 3.31853 10.3102 3.32125 10.296 3.32341C10.2816 3.32589 10.264 3.32882 10.2436 3.33132C10.2251 3.33625 10.2049 3.34118 10.1833 3.34637C10.1624 3.352 10.1365 3.35732 10.1097 3.36348C10.0961 3.36678 10.0825 3.36953 10.0684 3.37246L10.0245 3.38284C9.96491 3.39648 9.8995 3.41284 9.8315 3.4295C9.76321 3.44737 9.69207 3.46503 9.61977 3.48596C9.58368 3.49566 9.54739 3.50612 9.51109 3.51698L9.52518 3.5243C9.5773 3.54955 9.62775 3.5833 9.67718 3.61509L9.75023 3.66291C9.77391 3.6798 9.79666 3.69907 9.81934 3.71689L9.886 3.77091C9.89689 3.77993 9.90782 3.78859 9.91837 3.79778L9.94884 3.827C9.98868 3.86632 10.0286 3.90271 10.0637 3.94228C10.0963 3.98183 10.1285 4.0217 10.1604 4.06187C10.1679 4.07164 10.1759 4.0808 10.1827 4.09082L10.2028 4.12073C10.2159 4.14055 10.229 4.15971 10.2409 4.17923L10.2762 4.23603C10.2879 4.25432 10.2965 4.27398 10.3063 4.29216C10.3251 4.32916 10.3433 4.36378 10.3591 4.39737C10.3673 4.41373 10.3743 4.43105 10.3809 4.44798L10.4001 4.49659C10.4121 4.52793 10.4237 4.55653 10.4329 4.58357L10.4398 4.60323L10.4445 4.62116L10.453 4.65448C10.4642 4.69646 10.4713 4.73055 10.4768 4.7533L10.4846 4.78871C10.4915 4.82061 10.4855 4.85396 10.4679 4.88143C10.4502 4.9089 10.4224 4.92826 10.3905 4.93525Z" fill="#527B60"/>
</svg>
