<svg width="16" height="16" viewBox="0 0 16 16" fill="none" xmlns="http://www.w3.org/2000/svg">
<path fill-rule="evenodd" clip-rule="evenodd" d="M9.71209 4.09522C10.2387 3.87706 10.807 3.77761 11.3764 3.80395C11.9459 3.83029 12.5025 3.98176 13.0068 4.2476C13.511 4.51344 13.9505 4.88712 14.294 5.34206C14.6375 5.797 14.8765 6.32203 14.9941 6.87982H13.0741L12.1941 5.99982L11.3137 6.88002H8.95509C8.8261 6.30951 8.65933 5.7482 8.45589 5.19982H8.21289C8.61555 4.71537 9.1301 4.33626 9.71209 4.09522Z" fill="#527B60"/>
<path fill-rule="evenodd" clip-rule="evenodd" d="M7.12445 6.93187C7.27707 9.23233 6.82024 11.5324 5.80005 13.5999H8.72365C9.51855 10.9477 9.46176 8.11306 8.56125 5.49487L7.12445 6.93187Z" fill="#C09A58"/>
<path fill-rule="evenodd" clip-rule="evenodd" d="M6.282 2.69531C5.75535 2.47715 5.18711 2.37771 4.61767 2.40405C4.04824 2.43038 3.4916 2.58186 2.98733 2.8477C2.48307 3.11354 2.04357 3.48721 1.70009 3.94216C1.35661 4.3971 1.11758 4.92213 1 5.47991H2.9198L3.8 4.59991L4.5476 5.34751C5.06154 5.0548 5.63557 4.88338 6.22587 4.84636C6.81617 4.80935 7.40712 4.9077 7.9536 5.13391C8.1748 5.22558 8.38704 5.33752 8.5876 5.46831L8.5758 5.48031H8.5938C8.46381 4.86315 8.18532 4.28697 7.78246 3.80169C7.3796 3.31641 6.86471 2.93666 6.282 2.69531Z" fill="#527B60"/>
<path fill-rule="evenodd" clip-rule="evenodd" d="M2.88372 7.23386C3.10183 6.70717 3.43332 6.23502 3.85461 5.85098C4.2759 5.46694 4.77663 5.18045 5.3212 5.01188C5.86577 4.84332 6.44079 4.79682 7.00537 4.8757C7.56995 4.95458 8.11021 5.1569 8.58772 5.46826L5.82032 8.23566H4.57552V9.48046L3.21792 10.8379C2.87347 10.3095 2.663 9.70523 2.60473 9.07724C2.54646 8.44925 2.64236 7.81653 2.88372 7.23386Z" fill="#527B60"/>
</svg>
